<svg width="21" height="21" viewBox="0 0 21 21" fill="none" xmlns="http://www.w3.org/2000/svg">
<g id="Lead icon">
<path id="Vector" d="M9.18276 18.2637C9.77733 18.0238 10.3332 17.905 10.8515 17.905C11.3457 17.905 11.8862 18.0238 12.4743 18.2637C13.0605 18.5047 13.5641 18.6236 13.9816 18.6236M9.18276 18.2637L13.9816 18.6236M9.18276 18.2637C8.58728 18.5047 8.10757 18.6303 7.74081 18.6428M9.18276 18.2637L7.74081 18.6428M13.9816 18.6236V18.3736C13.9807 18.3736 13.9797 18.3736 13.9787 18.3736C13.9778 18.3736 13.9768 18.3736 13.9758 18.3736L13.9816 18.6236ZM17.3383 6.42529C16.6204 5.53117 15.5857 5.02339 14.2082 4.91222L14.2072 4.91214C13.6877 4.86804 13.0314 4.97899 12.2263 5.26864C11.7899 5.42879 11.4397 5.55022 11.1781 5.63194C11.0473 5.67277 10.9359 5.70455 10.8454 5.72637C10.7609 5.74672 10.6754 5.76336 10.6054 5.76336C10.4642 5.76336 10.267 5.71886 10.0362 5.65086C9.79715 5.58042 9.49537 5.4763 9.13289 5.34025C8.42172 5.07496 7.87465 4.95012 7.47645 4.9497C6.71049 4.96279 6.00196 5.16149 5.34461 5.55169C4.68601 5.94263 4.15999 6.47444 3.76295 7.15208L3.76174 7.15414L3.76173 7.15414C3.25728 7.99653 3 9.00998 3 10.202C3 11.2435 3.19113 12.3238 3.57604 13.4451L17.3383 6.42529ZM17.3383 6.42529C16.0438 7.29318 15.3883 8.49193 15.402 10.0016L15.402 10.002C15.4151 11.2378 15.8665 12.277 16.7518 13.0979C17.0923 13.4209 17.468 13.6823 17.8803 13.8817C17.8031 14.0948 17.7228 14.3007 17.6389 14.5001L17.3383 6.42529ZM7.74081 18.6428C7.18302 18.6666 6.62704 18.421 6.07207 17.905C5.71787 17.596 5.27483 17.0664 4.74408 16.3161L7.74081 18.6428ZM11.7212 1.86929L11.7224 1.86798C12.0376 1.50616 12.4418 1.20122 12.9397 0.955323C13.3451 0.757837 13.725 0.635679 14.0801 0.584771C14.0809 0.615726 14.0813 0.646744 14.0813 0.677806C14.0813 1.52769 13.7727 2.32793 13.1381 3.08133C12.421 3.91945 11.5941 4.39718 10.7224 4.40234C10.721 4.36749 10.7202 4.3321 10.7202 4.29615C10.7202 3.48611 11.0746 2.60119 11.7212 1.86929Z" fill="white" stroke="white" stroke-width="0.5"/>
</g>
</svg>
