<svg width="20" height="20" viewBox="0 0 20 20" fill="none" xmlns="http://www.w3.org/2000/svg">
<g id="mail-01">
<g id="Solid">
<path d="M1.77797 6.81786C1.52803 6.63933 1.40306 6.55007 1.29411 6.53848C1.13117 6.52114 0.967869 6.60518 0.887266 6.74784C0.833367 6.84324 0.83337 6.99513 0.833374 7.29891V12.7011C0.833364 13.3719 0.833356 13.9255 0.870203 14.3765C0.908474 14.8449 0.990611 15.2755 1.19669 15.68C1.51626 16.3072 2.0262 16.8171 2.65341 17.1367C3.05785 17.3428 3.48844 17.4249 3.95685 17.4632C4.40784 17.5 4.96147 17.5 5.63227 17.5H14.3678C15.0386 17.5 15.5922 17.5 16.0432 17.4632C16.5116 17.4249 16.9422 17.3428 17.3467 17.1367C17.9739 16.8171 18.4838 16.3072 18.8034 15.68C19.0095 15.2755 19.0916 14.8449 19.1299 14.3765C19.1667 13.9255 19.1667 13.3719 19.1667 12.7011V7.2989C19.1667 7.15001 19.1667 7.07557 19.1531 7.02358C19.0914 6.78856 18.8359 6.65468 18.6076 6.73776C18.5571 6.75614 18.4951 6.79905 18.3711 6.88487L11.9193 11.3516C11.4619 11.6693 11.0602 11.9482 10.6039 12.0588C10.2048 12.1556 9.78806 12.1525 9.39043 12.0499C8.93581 11.9326 8.53831 11.6478 8.08558 11.3234L1.77797 6.81786Z" fill="black"/>
<path d="M18.444 4.80727C18.5979 4.70077 18.6748 4.64752 18.722 4.56187C18.7587 4.49536 18.7797 4.39003 18.7713 4.31454C18.7605 4.21733 18.7192 4.15314 18.6365 4.02478C18.32 3.53304 17.8644 3.12713 17.3467 2.86331C16.9422 2.65724 16.5116 2.5751 16.0432 2.53683C15.5922 2.49998 15.0386 2.49999 14.3678 2.5H5.63229C4.96149 2.49999 4.40785 2.49998 3.95685 2.53683C3.48844 2.5751 3.05785 2.65724 2.65341 2.86331C2.18755 3.10068 1.78487 3.44384 1.47868 3.86112C1.38235 3.99241 1.33418 4.05805 1.31831 4.15767C1.3059 4.23558 1.32323 4.34381 1.35934 4.41395C1.40552 4.50364 1.48562 4.56085 1.64581 4.67527L8.95841 9.89856C9.56442 10.3314 9.69302 10.4067 9.80682 10.4361C9.93937 10.4703 10.0783 10.4713 10.2113 10.4391C10.3256 10.4114 10.4552 10.338 11.0676 9.91406L18.444 4.80727Z" fill="black"/>
</g>
</g>
</svg>
