<svg width="20" height="20" viewBox="0 0 20 20" fill="none" xmlns="http://www.w3.org/2000/svg">
<g id="shield-security">
<g id="vuesax/bold/shield-security">
<path id="Vector" d="M4.39054 13.8992L4.39054 13.8992L4.38712 13.8967C4.23858 13.787 4.06046 13.5709 3.918 13.2852C3.77583 13 3.70825 12.7237 3.70825 12.5333V5.78333C3.70825 5.49461 3.8224 5.14709 4.04337 4.82835C4.26408 4.50999 4.55009 4.27992 4.82232 4.17697C4.82256 4.17688 4.8228 4.17679 4.82304 4.1767L9.4024 2.46152C9.53196 2.41413 9.74964 2.37708 10.0041 2.37708C10.2585 2.37708 10.4762 2.41413 10.6058 2.46152C10.6063 2.46171 10.6068 2.4619 10.6073 2.46209L15.1829 4.17587C15.1835 4.17608 15.184 4.17629 15.1846 4.17651C15.4525 4.27905 15.7363 4.50848 15.955 4.82627C16.1742 5.14472 16.2858 5.49049 16.2833 5.7767L16.2833 5.7767V5.78333V12.5333C16.2833 12.7231 16.216 12.997 16.0739 13.2813C15.9322 13.5646 15.7532 13.7841 15.5995 13.9003C15.5991 13.9006 15.5988 13.9009 15.5984 13.9011L11.0176 17.3242L11.0156 17.3257C10.7639 17.5151 10.397 17.6313 9.99575 17.6313C9.5945 17.6313 9.22757 17.5151 8.97591 17.3257L8.97387 17.3242L4.39054 13.8992ZM11.3749 12.9167V11.2144C12.2378 10.7357 12.8333 9.82238 12.8333 8.75C12.8333 7.18579 11.5641 5.91667 9.99992 5.91667C8.43571 5.91667 7.16658 7.18579 7.16658 8.75C7.16658 9.81414 7.76108 10.733 8.62492 11.2139V12.9167C8.62492 13.6725 9.24404 14.2917 9.99992 14.2917C10.7558 14.2917 11.3749 13.6725 11.3749 12.9167Z" fill="#292D32" stroke="#19191B" stroke-width="1.5"/>
</g>
</g>
</svg>
